<?xml version="1.0" encoding="UTF-8"?>
<svg id="Layer_1" data-name="Layer 1" xmlns="http://www.w3.org/2000/svg" viewBox="0 0 698.92 274">
  <defs>
    <style>
      .cls-1 {
        fill: #020202;
      }

      .cls-2 {
        fill: #010101;
      }
    </style>
  </defs>
  <path class="cls-2" d="M156.53,114.97c-12.74-54.84-80.58-79.96-121.53-37.97v-19H1.5c-.11,0-1.5,1.39-1.5,1.5v214.5h37l-.96-76.5c1.15-3.44,6.92,3.24,8.64,4.32,59.7,37.72,127.31-20.32,111.86-86.86ZM79.39,180.89c-54.56.95-59.67-84.77-8.63-91.63,64.38-8.66,65.79,90.63,8.63,91.63Z"/>
  <path class="cls-2" d="M541,0v121c8.55-8.9,17.22-17.83,25.51-26.99,4.12-4.54,30.29-36.01,32.99-36.01h41.5l-55.8,64.35,61.8,87.65h-45.5l-42.05-62.04-2.53.7-15.72,18.04-1.2,43.3h-34.5l-1.57-207.53.23-1.3c.72-.15,1.98-1.17,2.34-1.17h34.5Z"/>
  <path class="cls-1" d="M674.73,171.24c17.37-2.92,30.81,16.91,20.7,31.69-13.61,19.9-45.74,4.32-36.64-18.64,2.49-6.28,9.22-11.93,15.93-13.06Z"/>
  <path class="cls-2" d="M468.5,87c-19.43-43.12-93.18-36.25-125.58-12.35-.27,1.66,12.19,26.93,13.68,27.28,6.78-2.41,12.69-6.89,19.42-9.4,24.39-9.1,64.38-8,62,26.9-.15,1.02-3.4.7-4.55.61-33.02-2.33-94-6.29-99.37,39.57-6.4,54.69,73.05,70.12,103.88,35.39l1.01,15h35v-102.5c0-3.56-3.84-16.81-5.5-20.5ZM390.61,183.89c-15.25-1.78-26.74-15.53-15.61-29.39,2.54-3.16,12.78-8.5,16.5-8.5h46.5c1.63,28.11-21.81,40.88-47.39,37.89Z"/>
  <path class="cls-2" d="M266.84,57.66c-98.85-21.87-129.37,123.63-43.38,151.38,29.22,9.43,70.63,3.38,91.45-20.39l-21.42-24.63c-24.15,25.96-74.97,24.91-82.5-15.02l109.07-1.44c5.89-38.52-12.48-80.89-53.22-89.91ZM210,120c10.28-41.91,66.79-45.4,74,0h-74Z"/>
</svg>